<?xml version="1.0" encoding="utf-8" ?>
<svg xmlns="http://www.w3.org/2000/svg" xmlns:xlink="http://www.w3.org/1999/xlink" width="616" height="616">
	<path fill="#21BB9F" transform="scale(1 0.998379)" d="M313.22 155.298C330.352 154.845 346.933 155.628 363.674 159.552C395.244 166.953 421.202 184.591 438.322 212.356C447.527 227.284 453.256 244.94 453.741 262.518C453.844 266.239 453.93 270.142 453.036 273.779C452.476 276.057 451.32 278.858 449.154 280.052C446.204 281.678 442.41 279.969 439.895 278.265C435.563 275.332 432.185 270.78 428.552 267.042C417.902 256.082 404.486 246.385 389.503 242.665C378.406 239.91 366.91 240.757 357.023 246.743C344.162 254.531 335.984 268.433 332.519 282.8C326.854 306.289 332.433 331.185 344.839 351.559C370.015 392.905 420.242 417.917 465.618 429.623C483.488 434.232 501.562 436.988 519.911 438.688C527.965 439.434 536.021 440.238 544.116 440.353C556.197 440.524 568.444 440.732 580.516 440.439C587.806 440.261 604.541 438.075 610.687 439.568C611.325 440.096 611.367 440.089 611.525 440.894C611.185 441.854 610.713 442.45 609.91 443.085C605.848 446.296 596.902 447.813 591.838 448.974C555.294 457.135 517.561 458.505 480.521 453.015C426.175 445.137 368.017 419.309 334.487 374.27C315.143 348.286 306.502 316.867 311.298 284.653C314.611 262.401 324.764 244.767 342.915 231.293C350.105 226.245 358.998 222.622 367.719 221.466C383.787 219.336 399.288 224.223 412.381 233.522C418.897 238.149 424.844 243.484 431.184 248.336C423.662 227.413 413.528 208.93 394.678 195.99C364.217 175.081 324.453 172.606 289.115 179.231C275.816 181.725 263.219 186.768 251.215 192.925C239.947 198.705 229.639 205.961 219.989 214.141C176.822 250.729 157.259 300.653 126.066 346.042C101.734 381.448 74.3504 413.834 34.0338 431.059C26.0879 434.453 17.3814 437.65 8.86933 439.176C7.01886 439.508 3.84876 440.068 2.31859 438.703C1.77579 438.219 1.51235 437.425 1.5098 436.714C1.49913 433.741 12.1705 430.305 14.6704 429.085C37.1362 418.118 60.117 396.855 76.4921 378.198C96.4513 355.457 113.037 330.145 128.589 304.262C134.618 294.229 140.28 283.978 146.323 273.952C158.822 253.214 172.591 233.219 189.102 215.449C221.513 180.566 265.074 157.066 313.22 155.298Z"/>
	<path fill="#21BB9F" transform="scale(1 0.998379)" d="M163.298 358.11C163.378 358.15 163.464 358.18 163.537 358.232C165.293 359.479 167.691 370.211 168.396 372.721C169.769 377.618 171.188 382.559 173.128 387.265C179.895 403.683 191.507 418.819 204.898 430.393C208.476 433.485 212.207 436.604 216.147 439.222C219.899 441.715 223.953 443.918 227.548 446.625C228.171 447.094 228.672 447.379 228.856 448.145L228.159 448.227C213.81 445.302 201.51 437.573 191.065 427.503C173.503 410.573 161.822 384.798 161.394 360.42L163.298 358.11Z"/>
	<path fill="#21BB9F" transform="scale(1 0.998379)" d="M204.403 311.058C204.584 311.17 204.744 311.252 204.888 311.419C206.555 313.354 205.777 320.595 205.751 323.044C205.564 340.607 209.546 359.912 216.819 375.924C219.393 381.592 222.583 387.02 225.902 392.278C227.422 394.686 229.153 397.042 230.533 399.528C230.894 400.178 231.236 400.812 231.101 401.569C230.235 401.658 229.92 401.25 229.211 400.796C217.726 390.62 210.012 377.5 205.184 363.051C200.211 348.17 197.19 325.512 204.403 311.058Z"/>
	<path fill="#21BB9F" transform="scale(1 0.998379)" d="M259.866 392.131C259.9 392.15 259.936 392.166 259.969 392.187C263.304 394.289 272.524 407.653 276.317 411.876C285.221 421.72 295.364 430.368 306.492 437.602C310.193 439.98 321.237 446.127 322.213 450.091C322.115 450.116 322.017 450.145 321.918 450.167C316.233 451.423 307.216 445.336 302.521 442.333C287.043 432.435 272.644 419.279 264.156 402.821C262.392 399.4 260.694 395.908 259.866 392.131Z"/>
	<path fill="#21BB9F" transform="scale(1 0.998379)" d="M265.316 249.405L265.546 249.654C265.393 252.309 258.56 263.051 256.995 266.183C250.958 278.267 246.562 290.525 243.87 303.766C243.23 306.937 242.662 310.122 242.168 313.319C241.66 316.785 241.132 328.317 239.592 330.649L239.048 330.66C237.87 325.647 237.431 320.746 237.531 315.596C237.915 295.776 244.556 274.249 256.738 258.514C259.312 255.188 262.288 252.306 265.316 249.405Z"/>
	<path fill="#21BB9F" transform="scale(1 0.998379)" d="M278.41 311.148C280.592 314.327 280.809 324.69 281.596 328.943C282.249 332.47 283.24 335.992 284.291 339.42C287.683 350.488 291.948 360.972 297.761 370.992C300.557 375.81 303.773 380.368 306.517 385.216L306.196 385.82C297.545 379.837 291.439 370.295 286.802 361.029C280.799 349.033 277.748 335.148 277.432 321.762C277.349 318.223 277.279 314.543 278.41 311.148Z"/>
	<path fill="#21BB9F" transform="scale(1 0.998379)" d="M349.824 433.755C350.217 433.8 350.595 433.853 350.983 433.929C356.13 434.939 361.108 438.025 365.835 440.232C373.033 443.593 380.126 446.833 387.759 449.102C390.942 450.049 397.404 451.299 399.307 454.079C396.436 454.517 393.543 454.487 390.66 454.174C377.852 452.783 358.047 443.954 349.824 433.755Z"/>
	<path fill="#21BB9F" transform="scale(1 0.998379)" d="M323.835 212.031C324.102 212.12 324.319 212.312 324.548 212.473C324.551 212.58 324.568 212.687 324.559 212.794C324.442 214.261 323.081 215.936 322.228 217.102C318.689 221.939 314.431 226.228 310.637 230.865C305.786 236.793 301.435 243.58 295.622 248.635L295.071 248.768C294.728 247.917 295.263 246.577 295.531 245.687C298.958 234.339 313.542 217.502 323.835 212.031Z"/>
	<path fill="#21BB9F" transform="scale(1 0.998379)" d="M134.587 401.049C136.521 401.771 137.911 403.859 139.053 405.505C142.732 410.808 150.823 424.483 152.325 430.363C152.562 431.292 152.391 432.199 152.219 433.125C152.056 433.095 151.893 433.069 151.731 433.036C148.425 432.361 145.507 428.245 143.701 425.605C139.142 418.943 133.028 409.42 134.587 401.049Z"/>
</svg>
